<?xml version="1.0" encoding="UTF-8"?><svg id="Layer_1" xmlns="http://www.w3.org/2000/svg" viewBox="0 0 501.26 498.75"><defs><style>.cls-1{fill:#1d1d1d;}</style></defs><path class="cls-1" d="M165.27,325.75C83.42,328.68,1.79,262.73,.03,166.75-1.64,75.53,67.87,1.64,160.06,.03c96.85-1.69,160.04,73.48,165.74,149.81,8.01,107.2-80.2,177.59-160.54,175.91Zm123.37-163.07c.02-72.03-58.62-125.37-125.79-125.1-70.57,.28-124.04,55.55-125.17,124.26-1.05,63.97,49.47,125.88,123.97,126.56,70.79,.65,126.56-54.77,126.98-125.72Z"/><path class="cls-1" d="M465.47,498.65c-12.43,1.01-22.13-5.83-30.9-14.44-24.35-23.92-48.72-47.82-72.88-71.93-18.91-18.88-37.51-38.06-56.23-57.12-.66-.67-1.26-1.39-1.85-2.12-4.44-5.44-4.3-7.79,1.03-12.58,3.02-2.72,6.14-5.36,9.35-7.85,9.76-7.54,17.98-16.48,24.89-26.68,1.11-1.64,2.36-3.19,3.69-4.65,3.68-4.04,6-4.42,10.21-1.03,5.03,4.05,10.04,8.2,14.6,12.77,40.54,40.66,80.99,81.42,121.46,122.14,7.37,7.41,11.5,16.47,12.31,26.73,.98,12.29-4.4,22.04-13.88,29.61-7.82,6.24-10.72,7.15-21.79,7.15Z"/><path class="cls-1" d="M274.07,334.12c-4.83-.08-7.1-1.96-8.55-5.05-1.34-2.84-.64-5.44,1.42-7.46,2.14-2.1,4.57-3.95,7.04-5.67,16.05-11.11,29.64-24.64,40.58-40.82,1.81-2.68,3.63-5.36,5.54-7.96,2.19-2.98,5.95-3.61,9.53-1.71,3.48,1.85,5.47,5.7,3.61,8.84-4.76,8.05-9.54,16.17-15.17,23.6-10.45,13.78-23.72,24.59-38.29,33.79-2.06,1.3-4.52,1.94-5.71,2.44Z"/><path class="cls-1" d="M170.53,78.32c11.54-.25,28.89,4.97,44.9,14.81,2.11,1.29,4.15,2.85,5.83,4.66,3.16,3.4,3.26,6.18,.84,9.54-2.51,3.49-5.27,4.31-9.56,2.39-3.32-1.48-6.46-3.38-9.71-5.02-23.65-11.94-47.77-13.48-72.44-3.29-2.97,1.23-6.02,2.36-9.14,3.07-3.42,.79-6.12-1.06-7.87-4.71-1.53-3.22-1.14-5.83,1.51-8.2,1.31-1.17,2.78-2.26,4.36-3,13.93-6.49,28.36-10.95,51.29-10.25Z"/></svg>